<?xml version="1.0" encoding="UTF-8"?>
<svg width="148px" height="185px" viewBox="0 0 148 185" version="1.1" xmlns="http://www.w3.org/2000/svg" xmlns:xlink="http://www.w3.org/1999/xlink">
    <!-- Generator: Sketch 53.2 (72643) - https://sketchapp.com -->
    <title>shield</title>
    <desc>Created with Sketch.</desc>
    <defs>
        <filter x="-22.4%" y="-17.8%" width="147.4%" height="137.6%" filterUnits="objectBoundingBox" id="filter-1">
            <feOffset dx="2" dy="2" in="SourceAlpha" result="shadowOffsetOuter1"></feOffset>
            <feGaussianBlur stdDeviation="1.5" in="shadowOffsetOuter1" result="shadowBlurOuter1"></feGaussianBlur>
            <feColorMatrix values="0 0 0 0 0   0 0 0 0 0   0 0 0 0 0  0 0 0 0.5 0" type="matrix" in="shadowBlurOuter1" result="shadowMatrixOuter1"></feColorMatrix>
            <feMerge>
                <feMergeNode in="shadowMatrixOuter1"></feMergeNode>
                <feMergeNode in="SourceGraphic"></feMergeNode>
            </feMerge>
        </filter>
        <linearGradient x1="29.0014884%" y1="4.52865479%" x2="60.1130371%" y2="89.6510579%" id="linearGradient-2">
            <stop stop-color="#8A8989" offset="0%"></stop>
            <stop stop-color="#181818" offset="100%"></stop>
        </linearGradient>
        <linearGradient x1="40.8107221%" y1="6.05253824%" x2="59.7358036%" y2="97.0157871%" id="linearGradient-3">
            <stop stop-color="#D0CBCB" offset="0%"></stop>
            <stop stop-color="#4F4E4E" offset="100%"></stop>
        </linearGradient>
        <path d="M56.5878627,0 C68.865716,8.09211614 78.2524285,13.4254495 84.7480002,16 C91.243572,18.5745505 100.71948,20.7175061 113.175725,22.4288666 L108.943582,54.8606432 L105.33682,82.5 L91.5610852,110.735068 C76.3533164,136.245023 64.6955756,149 56.5878627,149 C48.4801499,149 36.8224091,136.245023 21.6146402,110.735068 L7.72058187,82.5 L4.16594392,54.8426117 L1.42108547e-14,22.4288666 C13.9062591,20.8481663 24.272002,18.7052108 31.0972286,16 C37.9224552,13.2947892 46.4193332,7.96145586 56.5878627,0 Z" id="path-4"></path>
        <filter x="-18.3%" y="-14.4%" width="140.2%" height="130.5%" filterUnits="objectBoundingBox" id="filter-5">
            <feMorphology radius="6" operator="dilate" in="SourceAlpha" result="shadowSpreadOuter1"></feMorphology>
            <feOffset dx="2" dy="2" in="shadowSpreadOuter1" result="shadowOffsetOuter1"></feOffset>
            <feGaussianBlur stdDeviation="5" in="shadowOffsetOuter1" result="shadowBlurOuter1"></feGaussianBlur>
            <feComposite in="shadowBlurOuter1" in2="SourceAlpha" operator="out" result="shadowBlurOuter1"></feComposite>
            <feColorMatrix values="0 0 0 0 0   0 0 0 0 0   0 0 0 0 0  0 0 0 0.5 0" type="matrix" in="shadowBlurOuter1"></feColorMatrix>
        </filter>
        <linearGradient x1="50%" y1="0%" x2="50%" y2="100%" id="linearGradient-6">
            <stop stop-color="#FFFFFF" offset="0%"></stop>
            <stop stop-color="#7D7D7D" offset="100%"></stop>
        </linearGradient>
    </defs>
    <g id="Symbols" stroke="none" stroke-width="1" fill="none" fill-rule="evenodd">
        <g id="shieldsvg" transform="translate(14.000000, 15.000000)">
            <g id="shield" filter="url(#filter-1)">
                <g id="Polygon">
                    <g>
                        <use fill="black" fill-opacity="1" filter="url(#filter-5)" xlink:href="#path-4"></use>
                        <use stroke="url(#linearGradient-3)" stroke-width="12" fill="url(#linearGradient-2)" fill-rule="evenodd" xlink:href="#path-4"></use>
                    </g>
                </g>
                <g id="light-bulb" transform="translate(21.383877, 25.000000)" fill-rule="nonzero">
                    <path d="M34.9187048,12 C24.1681124,12 16.4021859,19.9831172 15.170649,28.5581111 C14.4027495,34.2747737 16.2572992,39.8470761 20.1112851,44.062393 C23.5016337,47.6713971 25.3561833,52.4930267 25.3561833,57.4590164 L25.3416946,65.2833374 C25.3416946,68.4448251 27.9641437,71 31.2096055,71 L38.7726907,71 C42.0181526,71 44.6406017,68.4448251 44.6406017,65.2833374 L44.6550904,57.4590164 C44.6550904,52.3486665 46.3502646,47.6713971 49.5957265,44.3655493 C53.1454504,40.7565451 55,36.0937118 55,31.2720822 C54.9855113,20.5749939 45.8721385,12 34.9187048,12 L34.9187048,12 Z M41.6994019,65.2833374 C41.6994019,66.7846831 40.467865,67.9973085 38.9175774,67.9973085 L31.3544922,67.9973085 C29.8042047,67.9973085 28.5726678,66.7991192 28.5726678,65.2833374 L28.5726678,61.8186934 L41.6849132,61.8186934 L41.6849132,65.2833374 L41.6994019,65.2833374 Z M47.4369148,42.2578909 C43.5829288,46.1700514 41.5690039,51.5835576 41.5690039,57.4590164 L41.5690039,58.816002 L28.4567584,58.816002 L28.4567584,57.4590164 C28.4567584,51.886714 26.1385714,46.3288476 22.2845855,42.1135307 C18.8942369,38.5045265 17.5033247,33.8416932 18.1118488,29.0200636 C19.198499,21.8020553 25.93573,15.0171275 34.9331935,15.0171275 C44.3508283,15.0171275 51.9139135,22.393932 51.9139135,31.2720822 C51.9139135,35.3286029 50.3636259,39.2407634 47.4369148,42.2578909 Z" id="Shape" fill="url(#linearGradient-6)"></path>
                    <rect id="Rectangle" fill="#FFFFFF" x="34" y="0" width="3" height="7"></rect>
                    <polygon id="Path" fill="#FFFFFF" points="55 13.914 57.0291829 16 62 11.086 59.9571984 9"></polygon>
                    <rect id="Rectangle" fill="#FFFFFF" x="64" y="33" width="7" height="3"></rect>
                    <rect id="Rectangle" fill="#FFFFFF" x="0" y="33" width="7" height="3"></rect>
                    <polygon id="Path" fill="#FFFFFF" points="11.0428016 9 9 11.086 13.9708171 16 16 13.914"></polygon>
                </g>
            </g>
        </g>
    </g>
</svg>