<?xml version="1.0" encoding="UTF-8"?>
<svg width="70px" height="78px" viewBox="0 0 70 78" version="1.1" xmlns="http://www.w3.org/2000/svg" xmlns:xlink="http://www.w3.org/1999/xlink">
    <!-- Generator: Sketch 53.2 (72643) - https://sketchapp.com -->
    <title>avatar</title>
    <desc>Created with Sketch.</desc>
    <defs>
        <path d="M29.270544,35 C29.3400761,35 29.4096083,35 29.4930468,35 C29.5208596,35 29.5486725,35 29.5764853,35 C29.6182046,35 29.6738303,35 29.7155495,35 C33.7901312,34.932744 37.0859533,33.5472713 39.5195772,30.8973866 C44.8735497,25.0595696 43.9835387,15.0518832 43.8861937,14.0968486 C43.5385332,6.92736357 40.0341148,3.49730976 37.141579,1.89661799 C34.9860835,0.699461952 32.4690211,0.0538047656 29.6599239,0 L29.5625789,0 C29.5486725,0 29.5208596,0 29.5069532,0 L29.4235147,0 C27.8799018,0 24.8483018,0.242121445 21.9418596,1.84281322 C19.0215109,3.443505 15.4614668,6.8735588 15.1138063,14.0968486 C15.0164613,15.0518832 14.1264503,25.0595696 19.4804228,30.8973866 C21.9001403,33.5472713 25.1959623,34.932744 29.270544,35 Z M18.826821,14.4331284 C18.826821,14.3927748 18.8407274,14.3524212 18.8407274,14.3255188 C19.2996393,4.6810146 26.3780082,3.64527287 29.4096083,3.64527287 L29.4652339,3.64527287 C29.4930468,3.64527287 29.5347661,3.64527287 29.5764853,3.64527287 C33.3312193,3.72598002 39.7142671,5.20561107 40.1453662,14.3255188 C40.1453662,14.3658724 40.1453662,14.406226 40.1592726,14.4331284 C40.173179,14.5272867 41.1466286,23.6740968 36.7243863,28.4896234 C34.9721771,30.3996925 32.6358982,31.3412759 29.5625789,31.3681783 C29.5347661,31.3681783 29.5208596,31.3681783 29.4930468,31.3681783 L29.4930468,31.3681783 C29.4652339,31.3681783 29.4513275,31.3681783 29.4235147,31.3681783 C26.3641018,31.3412759 24.0139165,30.3996925 22.2756137,28.4896234 C17.8672779,23.7009992 18.8129146,14.5138355 18.826821,14.4331284 Z" id="path-1"></path>
        <filter x="-31.0%" y="-25.7%" width="162.1%" height="151.4%" filterUnits="objectBoundingBox" id="filter-2">
            <feOffset dx="0" dy="0" in="SourceAlpha" result="shadowOffsetOuter1"></feOffset>
            <feGaussianBlur stdDeviation="3" in="shadowOffsetOuter1" result="shadowBlurOuter1"></feGaussianBlur>
            <feColorMatrix values="0 0 0 0 0   0 0 0 0 0.831212103   0 0 0 0 0.706717908  0 0 0 0.279774913 0" type="matrix" in="shadowBlurOuter1"></feColorMatrix>
        </filter>
        <path d="M57.9960455,52.2364453 C57.9960455,52.2225847 57.9960455,52.2087242 57.9960455,52.1948636 C57.9960455,52.083979 57.9819252,51.9730943 57.9819252,51.8483491 C57.8972032,49.1039545 57.7136389,42.6865066 51.5854149,40.6351409 C51.5430539,40.6212803 51.4865726,40.6074198 51.4442116,40.5935592 C45.075942,38.9995926 39.7808176,35.3958422 39.7243362,35.3542604 C38.862996,34.7582555 37.6768881,34.9661642 37.0697139,35.8116595 C36.4625396,36.6571548 36.6743446,37.8214434 37.5356848,38.4174483 C37.7757305,38.5837753 43.3956225,42.4231556 50.4275477,44.1973097 C53.717585,45.3477377 54.0847136,48.7990218 54.1835559,51.9592337 C54.1835559,52.083979 54.1835559,52.1948636 54.1976763,52.3057482 C54.2117966,53.5532003 54.1270746,55.4798207 53.9011493,56.588667 C51.6136556,57.8638403 42.6472449,62.2715043 29.0070045,62.2715043 C15.4232453,62.2715043 6.40035334,57.8499797 4.09873927,56.5748065 C3.87281396,55.4659602 3.77397164,53.5393397 3.80221231,52.2918876 C3.80221231,52.181003 3.81633264,52.0701184 3.81633264,51.9453732 C3.91517496,48.7851612 4.28230358,45.3338771 7.57234088,44.1834491 C14.6042661,42.409295 20.2241581,38.5560541 20.4642038,38.4035877 C21.325544,37.8075829 21.537349,36.6432942 20.9301747,35.7977989 C20.3230004,34.9523036 19.1368926,34.744395 18.2755523,35.3403998 C18.219071,35.3819816 12.9521873,38.985732 6.55567699,40.5796986 C6.49919567,40.5935592 6.45683467,40.6074198 6.41447368,40.6212803 C0.286249702,42.6865066 0.10268539,49.1039545 0.0179633993,51.8344885 C0.0179633993,51.9592337 0.0179633993,52.0701184 0.00384306753,52.181003 C0.00384306753,52.1948636 0.00384306753,52.2087242 0.00384306753,52.2225847 C-0.0102772642,52.9433348 -0.0243975959,56.6441094 0.723979986,58.5014269 C0.865183304,58.861802 1.11934927,59.1667347 1.45823724,59.3746434 C1.88184719,59.6518549 12.0343657,66 29.0211248,66 C46.0078839,66 56.1604024,59.6379944 56.5840123,59.3746434 C56.90878,59.1667347 57.1770663,58.861802 57.3182696,58.5014269 C58.0242862,56.6579699 58.0101658,52.9571954 57.9960455,52.2364453 Z" id="path-3"></path>
        <filter x="-15.5%" y="-29.0%" width="131.0%" height="158.1%" filterUnits="objectBoundingBox" id="filter-4">
            <feOffset dx="0" dy="0" in="SourceAlpha" result="shadowOffsetOuter1"></feOffset>
            <feGaussianBlur stdDeviation="3" in="shadowOffsetOuter1" result="shadowBlurOuter1"></feGaussianBlur>
            <feColorMatrix values="0 0 0 0 0   0 0 0 0 0.831212103   0 0 0 0 0.706717908  0 0 0 0.279774913 0" type="matrix" in="shadowBlurOuter1"></feColorMatrix>
        </filter>
    </defs>
    <g id="Game-Setup" stroke="none" stroke-width="1" fill="none" fill-rule="evenodd">
        <g id="profile" transform="translate(-153.000000, -131.000000)" fill-rule="nonzero">
            <g id="avatar" transform="translate(159.000000, 137.000000)">
                <g id="Shape">
                    <use fill="black" fill-opacity="1" filter="url(#filter-2)" xlink:href="#path-1"></use>
                    <use fill="#00D0B5" xlink:href="#path-1"></use>
                </g>
                <g id="Path">
                    <use fill="black" fill-opacity="1" filter="url(#filter-4)" xlink:href="#path-3"></use>
                    <use fill="#00D0B5" xlink:href="#path-3"></use>
                </g>
            </g>
        </g>
    </g>
</svg>