<?xml version="1.0" encoding="UTF-8"?>
<svg width="145px" height="136px" viewBox="0 0 145 136" version="1.1" xmlns="http://www.w3.org/2000/svg" xmlns:xlink="http://www.w3.org/1999/xlink">
    <!-- Generator: Sketch 53.2 (72643) - https://sketchapp.com -->
    <title>Shape</title>
    <desc>Created with Sketch.</desc>
    <defs>
        <radialGradient cx="36.808231%" cy="16.9663493%" fx="36.808231%" fy="16.9663493%" r="106.342084%" gradientTransform="translate(0.368082,0.169663),scale(0.931034,1.000000),rotate(58.281142),translate(-0.368082,-0.169663)" id="radialGradient-1">
            <stop stop-color="#747474" offset="0%"></stop>
            <stop stop-color="#070707" offset="100%"></stop>
        </radialGradient>
        <radialGradient cx="29.7889115%" cy="6.19920466%" fx="29.7889115%" fy="6.19920466%" r="115.834721%" gradientTransform="translate(0.297889,0.061992),scale(0.931034,1.000000),rotate(56.118595),translate(-0.297889,-0.061992)" id="radialGradient-2">
            <stop stop-color="#FFFFFF" offset="0%"></stop>
            <stop stop-color="#B1B1B1" offset="100%"></stop>
        </radialGradient>
        <path d="M197.792259,168.650913 C198.253313,163.751119 194.850732,159.312159 189.943025,158.411339 L183.772613,149.979734 C184.150971,149.291835 184.44097,148.560011 184.635814,147.801014 L190.611382,145.44548 C193.371283,148.542516 197.841348,149.533418 201.68006,147.898913 C205.518773,146.264408 207.851605,142.377107 207.456632,138.273163 C207.061659,134.169219 204.027996,130.784442 199.94573,129.891066 L195.104858,120.371776 C198.500643,116.960942 198.79404,111.592872 195.789075,107.842555 C192.78411,104.091866 187.419126,103.129254 183.266625,105.595715 L177.868411,101.177601 C178.276978,100.124906 178.490701,99.0089312 178.499764,97.8817889 C178.508449,93.9900213 176.110292,90.4857553 172.446409,89.0366256 C168.782527,87.5871236 164.592265,88.4853383 161.869747,91.3035663 L152.316768,88.9495214 C151.17263,84.8645613 147.414725,82.0258602 143.115714,82.0001757 C138.816703,81.9744911 135.024058,84.767779 133.829699,88.838594 L121.06294,91.3556798 C117.732859,87.8156789 112.236468,87.306827 108.29618,90.1741905 C104.355893,93.0411819 103.229503,98.3686786 105.679391,102.548932 L99.4236414,110.76166 C94.9407379,111.560487 91.6374663,115.344305 91.5041724,119.833145 C91.3708785,124.321985 94.4441898,128.28969 98.8719633,129.345735 L104.044748,141.934514 C101.206683,144.6809 100.368782,148.862642 101.934324,152.467041 C103.499866,156.071067 107.148267,158.359225 111.122917,158.229686 C115.097567,158.100146 118.585109,155.580082 119.905964,151.88188 L137.205093,151.88188 C138.649425,156.261654 143.156495,158.91349 147.752302,158.087862 L158.449419,174.12805 C155.705,177.127558 155.18353,181.508822 157.148576,185.053289 C159.113623,188.597385 163.136606,190.530427 167.179224,189.872679 C171.221842,189.214931 174.40126,186.110451 175.107,182.131579 L183.092172,175.839609 C184.611647,176.783981 186.370144,177.287994 188.166402,177.29395 C193.158692,177.2973 197.331584,173.551078 197.792259,168.650913 Z M197.833418,135.99915 C199.445028,135.995799 200.811196,137.166866 201.031716,138.740324 C201.252614,140.313782 200.259895,141.806464 198.708324,142.234539 C197.156753,142.662615 195.522487,141.894684 194.88245,140.436621 C194.8715,140.407586 194.877541,140.377435 194.865836,140.3484 L194.845445,140.317504 C194.695537,139.95457 194.615862,139.567441 194.610954,139.175472 C194.613219,137.422223 196.05453,136.001011 197.833418,135.99915 Z M185.012284,113.11831 C185.321541,111.643868 186.639753,110.586335 188.167157,110.587452 C189.946801,110.587452 191.389244,112.009408 191.389244,113.763774 C191.389244,115.518141 189.946801,116.940097 188.167157,116.940097 C187.768409,116.935258 187.374569,116.856715 187.005273,116.708564 L186.977708,116.690696 C186.949387,116.679529 186.919557,116.685485 186.890481,116.67469 C185.487308,116.078734 184.702649,114.593125 185.012284,113.11831 Z M181.806811,120.883606 L181.806811,120.883606 L175.852389,135.560279 L165.414307,127.328567 C166.830319,126.137771 167.864951,124.567292 168.393596,122.807714 L181.160355,120.290628 C181.363128,120.502432 181.584781,120.690786 181.806811,120.883606 Z M178.376288,146.386875 C177.942422,147.914547 176.430877,148.892049 174.836259,148.675405 C173.242019,148.458762 172.054457,147.115348 172.055968,145.52849 C172.057856,143.774868 173.499166,142.353656 175.278054,142.352167 C175.676803,142.357006 176.070643,142.435549 176.439939,142.5837 L176.467504,142.601568 C176.49658,142.613107 176.527165,142.608268 176.556241,142.618691 C178.033046,143.25001 178.810154,144.85883 178.376288,146.386875 Z M168.833503,94.7054662 C170.613146,94.7054662 172.05559,96.1274225 172.05559,97.8817889 C172.05559,99.6361553 170.612769,101.058112 168.833503,101.058112 C167.054237,101.058112 165.611416,99.6361553 165.611416,97.8817889 C165.613304,96.128167 167.054615,94.7073274 168.833503,94.7054662 Z M151.87686,95.3888986 L159.236721,97.2028234 C159.219729,97.4313787 159.167242,97.6495112 159.167242,97.8821611 C159.172906,103.142655 163.497594,107.405918 168.833881,107.411501 C170.561792,107.402568 172.255342,106.932429 173.733658,106.050592 L179.132249,110.468707 C178.723682,111.521402 178.509581,112.637377 178.500519,113.764519 C178.500519,113.956595 178.546964,114.136386 178.557915,114.325857 L168.06357,116.394766 C166.747624,113.375156 163.946564,111.236638 160.6516,110.735975 L148.85377,99.1060858 C150.163675,98.1382622 151.203971,96.8596183 151.87686,95.3888986 Z M162.389329,120.117164 C162.389329,121.871531 160.946886,123.293487 159.167242,123.293487 C157.388354,123.291626 155.946666,121.870786 155.945155,120.117164 C155.945155,118.362798 157.387599,116.940841 159.167242,116.940841 C160.946886,116.940841 162.389329,118.362798 162.389329,120.117164 Z M143.056053,88.3524487 C144.835696,88.3524487 146.278139,89.7744049 146.278139,91.5287714 C146.278139,93.2831378 144.835696,94.705094 143.056053,94.705094 C141.276409,94.705094 139.833966,93.2831378 139.833966,91.5287714 C139.835476,89.7755217 141.277165,88.3543099 143.056053,88.3524487 Z M143.694579,103.004926 L153.36877,112.540594 C151.864777,113.660664 150.726304,115.190197 150.094196,116.940469 L142.462083,116.940469 C141.701213,114.837314 140.214212,113.06508 138.261249,111.933471 L143.694579,103.004926 Z M123.66538,97.3208234 L134.159724,95.2519143 C134.983277,97.1242808 136.394002,98.6876882 138.184218,99.7124645 L132.335146,109.322581 L122.223692,102.926756 C123.197908,101.418812 123.717489,99.6692847 123.722776,97.8817889 C123.722776,97.6897131 123.676331,97.5099213 123.66538,97.3208234 Z M136.611501,120.117164 C136.611501,121.871531 135.169057,123.293487 133.389414,123.293487 C131.610526,123.291626 130.168838,121.870786 130.167327,120.117164 C130.167327,118.362798 131.609771,116.940841 133.389414,116.940841 C135.169057,116.940841 136.611501,118.362798 136.611501,120.117164 Z M114.056138,94.7054662 C115.835781,94.7054662 117.278224,96.1274225 117.278224,97.8817889 C117.278224,99.6361553 115.835781,101.058112 114.056138,101.058112 C112.276494,101.058112 110.834051,99.6361553 110.834051,97.8817889 C110.835561,96.128167 112.27725,94.7073274 114.056138,94.7054662 Z M110.54896,106.738492 C112.512119,107.536574 114.697685,107.627773 116.722393,106.996454 L126.671101,113.289169 C125.612302,114.311711 124.806497,115.561321 124.316746,116.940469 L110.240081,116.940469 C109.536607,114.974298 108.199136,113.289169 106.431954,112.143787 L110.54896,106.738492 Z M101.167035,123.293487 C99.3873915,123.293487 97.9449478,121.871531 97.9449478,120.117164 C97.9468358,118.363542 99.3881467,116.94233 101.167035,116.940841 C102.946678,116.940841 104.389122,118.362798 104.389122,120.117164 C104.389122,121.871531 102.946678,123.293487 101.167035,123.293487 Z M110.833673,151.881507 C109.05403,151.881507 107.611586,150.459179 107.611586,148.705185 C107.611586,146.950818 109.05403,145.528862 110.833673,145.528862 C112.613316,145.528862 114.05576,146.951191 114.05576,148.705185 C114.05425,150.458807 112.612561,151.879646 110.833673,151.881507 Z M112.666181,139.358242 C112.062771,139.23987 111.448788,139.178822 110.833673,139.175472 C110.514598,139.175472 110.213271,139.238381 109.902126,139.268532 L105.511358,128.582643 C107.716182,127.481185 109.408221,125.587973 110.239703,123.293487 L124.316368,123.293487 C124.896744,124.893374 125.901546,126.310491 127.226177,127.397059 L112.666181,139.358242 Z M137.205471,145.52849 L119.906342,145.52849 C119.562345,144.577045 119.065797,143.685903 118.435955,142.889309 L134.260922,129.889205 L139.649695,141.803858 C138.548605,142.83794 137.711081,144.114351 137.205471,145.52849 Z M142.462083,123.293487 L150.094574,123.293487 C150.855444,125.396642 152.342445,127.168876 154.295408,128.300485 L147.595974,139.307245 C147.16022,139.233542 146.720313,139.189617 146.278517,139.175845 C146.028921,139.175845 145.79443,139.230192 145.549366,139.248431 L140.017858,127.018491 C141.118949,125.984036 141.956472,124.707626 142.462083,123.293487 Z M146.278139,151.881507 C144.498496,151.881507 143.056053,150.459179 143.056053,148.705185 C143.056053,146.950818 144.498874,145.528862 146.278139,145.528862 C148.057783,145.528862 149.500226,146.951191 149.500226,148.705185 C149.498716,150.458807 148.057027,151.879646 146.278139,151.881507 Z M160.032331,131.220707 L169.030989,138.317459 C167.615356,139.508627 166.580346,141.079107 166.051701,142.838312 L155.174468,144.982786 C154.726253,143.967688 154.102452,143.037461 153.330632,142.233423 L160.032331,131.220707 Z M165.611416,183.645851 C163.831773,183.645851 162.389329,182.223894 162.389329,180.469528 C162.389329,178.715161 163.831773,177.293205 165.611416,177.293205 C167.391059,177.293205 168.833503,178.715161 168.833503,180.469528 C168.831993,182.22315 167.390304,183.644362 165.611416,183.645851 Z M178.500141,167.763865 C178.511847,168.825121 178.705557,169.876698 179.072965,170.874301 L173.633593,175.160643 C171.599823,172.028989 167.847581,170.419424 164.136876,171.087222 L153.439759,155.047035 C154.395472,153.996574 155.100835,152.749198 155.504493,151.395734 L166.381726,149.251261 C168.455522,154.079584 174.099555,156.345035 179.004619,154.317817 L182.979647,159.749541 C180.195202,161.490879 178.505805,164.513094 178.500141,167.763865 Z M181.6384,138.40903 L187.786533,123.255518 C187.915296,123.26073 188.036507,123.293487 188.16678,123.293487 C188.554956,123.278597 188.941999,123.239884 189.325644,123.178092 L193.227038,130.850328 C190.120876,132.502328 188.179241,135.696519 188.16678,139.175845 C188.16678,139.304639 188.200386,139.424128 188.205295,139.551807 L183.873055,141.259271 C183.319112,140.177914 182.560507,139.210463 181.6384,138.40903 Z M188.16678,170.940188 C186.387137,170.940188 184.944693,169.518231 184.944693,167.763865 C184.946581,166.010243 186.387892,164.589031 188.16678,164.587542 C189.946423,164.587542 191.388867,166.009499 191.388867,167.763865 C191.388867,169.518231 189.946423,170.940188 188.16678,170.940188 Z" id="path-3"></path>
        <filter x="-18.5%" y="-19.9%" width="137.1%" height="139.8%" filterUnits="objectBoundingBox" id="filter-4">
            <feMorphology radius="1.5" operator="dilate" in="SourceAlpha" result="shadowSpreadOuter1"></feMorphology>
            <feOffset dx="0" dy="0" in="shadowSpreadOuter1" result="shadowOffsetOuter1"></feOffset>
            <feGaussianBlur stdDeviation="6" in="shadowOffsetOuter1" result="shadowBlurOuter1"></feGaussianBlur>
            <feComposite in="shadowBlurOuter1" in2="SourceAlpha" operator="out" result="shadowBlurOuter1"></feComposite>
            <feColorMatrix values="0 0 0 0 0.931272645   0 0 0 0 0.931272645   0 0 0 0 0.931272645  0 0 0 0.516663024 0" type="matrix" in="shadowBlurOuter1" result="shadowMatrixOuter1"></feColorMatrix>
            <feMorphology radius="0.5" operator="dilate" in="SourceAlpha" result="shadowSpreadOuter2"></feMorphology>
            <feOffset dx="0" dy="2" in="shadowSpreadOuter2" result="shadowOffsetOuter2"></feOffset>
            <feGaussianBlur stdDeviation="2" in="shadowOffsetOuter2" result="shadowBlurOuter2"></feGaussianBlur>
            <feComposite in="shadowBlurOuter2" in2="SourceAlpha" operator="out" result="shadowBlurOuter2"></feComposite>
            <feColorMatrix values="0 0 0 0 0   0 0 0 0 0   0 0 0 0 0  0 0 0 0.5 0" type="matrix" in="shadowBlurOuter2" result="shadowMatrixOuter2"></feColorMatrix>
            <feMorphology radius="0.5" operator="dilate" in="SourceAlpha" result="shadowSpreadOuter3"></feMorphology>
            <feOffset dx="-4" dy="2" in="shadowSpreadOuter3" result="shadowOffsetOuter3"></feOffset>
            <feGaussianBlur stdDeviation="4" in="shadowOffsetOuter3" result="shadowBlurOuter3"></feGaussianBlur>
            <feComposite in="shadowBlurOuter3" in2="SourceAlpha" operator="out" result="shadowBlurOuter3"></feComposite>
            <feColorMatrix values="0 0 0 0 0.0172384511   0 0 0 0 0.0172384511   0 0 0 0 0.0172384511  0 0 0 0.391526442 0" type="matrix" in="shadowBlurOuter3" result="shadowMatrixOuter3"></feColorMatrix>
            <feMerge>
                <feMergeNode in="shadowMatrixOuter1"></feMergeNode>
                <feMergeNode in="shadowMatrixOuter2"></feMergeNode>
                <feMergeNode in="shadowMatrixOuter3"></feMergeNode>
            </feMerge>
        </filter>
        <filter x="-14.2%" y="-15.3%" width="128.4%" height="130.6%" filterUnits="objectBoundingBox" id="filter-5">
            <feGaussianBlur stdDeviation="1.5" in="SourceAlpha" result="shadowBlurInner1"></feGaussianBlur>
            <feOffset dx="0" dy="1" in="shadowBlurInner1" result="shadowOffsetInner1"></feOffset>
            <feComposite in="shadowOffsetInner1" in2="SourceAlpha" operator="arithmetic" k2="-1" k3="1" result="shadowInnerInner1"></feComposite>
            <feColorMatrix values="0 0 0 0 0   0 0 0 0 0   0 0 0 0 0  0 0 0 0.5 0" type="matrix" in="shadowInnerInner1"></feColorMatrix>
        </filter>
    </defs>
    <g id="Logo" stroke="none" stroke-width="1" fill="none" fill-rule="evenodd" opacity="0.0656389509">
        <g id="BRAIN-SPACE-Copy-2" transform="translate(-77.000000, -68.000000)" fill-rule="nonzero">
            <g id="Shape">
                <use fill="black" fill-opacity="1" filter="url(#filter-4)" xlink:href="#path-3"></use>
                <use fill="url(#radialGradient-1)" xlink:href="#path-3"></use>
                <use fill="black" fill-opacity="1" filter="url(#filter-5)" xlink:href="#path-3"></use>
                <use stroke="url(#radialGradient-2)" stroke-width="1" xlink:href="#path-3"></use>
            </g>
        </g>
    </g>
</svg>