<?xml version="1.0" encoding="UTF-8"?>
<svg width="10px" height="10px" viewBox="0 0 10 10" version="1.1" xmlns="http://www.w3.org/2000/svg" xmlns:xlink="http://www.w3.org/1999/xlink">
    <!-- Generator: Sketch 53.2 (72643) - https://sketchapp.com -->
    <title>edit-2</title>
    <desc>Created with Sketch.</desc>
    <g id="Game-Setup" stroke="none" stroke-width="1" fill="none" fill-rule="evenodd">
        <g id="profile" transform="translate(-248.000000, -137.000000)" fill="#00D1AE" fill-rule="nonzero">
            <g id="edit-2" transform="translate(248.000000, 137.000000)">
                <path d="M9.73724995,6.2863008 C9.59212159,6.2863008 9.4744999,6.3980306 9.4744999,6.53588915 L9.4744999,8.75196075 C9.4739867,9.16534146 9.12142953,9.50033582 8.68624976,9.50072581 L1.31375024,9.50072581 C0.878570475,9.50033582 0.526013274,9.16534146 0.525500097,8.75196075 L0.525500097,2.24794176 C0.526013274,1.83465854 0.878570475,1.49966418 1.31375024,1.49917671 L3.64668328,1.49917671 C3.79181164,1.49917671 3.90943333,1.38744691 3.90943333,1.24958835 C3.90943333,1.11182729 3.79181164,1 3.64668328,1 L1.31375024,1 C0.588519067,1.00077996 0.000821093902,1.5590389 0,2.24794176 L0,8.75205824 C0.000821093902,9.4409611 0.588519067,9.99922004 1.31375024,10 L8.68624976,10 C9.41148093,9.99922004 9.99917891,9.4409611 10,8.75205824 L10,6.53588915 C10,6.3980306 9.88237829,6.2863008 9.73724995,6.2863008 Z" id="Path"></path>
                <path d="M9.40592662,0.359440339 C8.98654234,-0.119813446 8.30661588,-0.119813446 7.88723157,0.359440339 L3.62981442,5.22462812 C3.60063743,5.25797028 3.57957033,5.29930182 3.56857071,5.34468125 L3.00870806,7.65445238 C2.9856834,7.74915267 3.0090809,7.85056401 3.06985856,7.92012452 C3.1307294,7.9895785 3.2194722,8.01631616 3.30234231,7.99011112 L5.32357143,7.35021836 C5.36328195,7.33764845 5.39945024,7.31357392 5.42862725,7.28023173 L9.68595117,2.41493743 C10.1046829,1.93536407 10.1046829,1.15901338 9.68595117,0.67943999 L9.40592662,0.359440339 Z M4.14978012,5.40188491 L7.63414679,1.41999844 L8.75788046,2.70415151 L5.27342055,6.68603798 L4.14978012,5.40188491 Z M3.92531304,5.91661138 L4.82308815,6.94265554 L3.58124825,7.33583754 L3.92531304,5.91661138 Z M9.34850481,2.02931868 L9.09542006,2.31853275 L7.97159318,1.03427317 L8.22477114,0.745059093 C8.45772099,0.478854317 8.83543719,0.478854317 9.06838705,0.745059093 L9.34850481,1.06505874 C9.58108179,1.3315831 9.58108179,1.76290087 9.34850481,2.02931868 L9.34850481,2.02931868 Z" id="Shape"></path>
            </g>
        </g>
    </g>
</svg>