<?xml version="1.0" encoding="UTF-8"?>
<svg width="118px" height="110px" viewBox="0 0 118 110" version="1.1" xmlns="http://www.w3.org/2000/svg" xmlns:xlink="http://www.w3.org/1999/xlink">
    <!-- Generator: Sketch 53.2 (72643) - https://sketchapp.com -->
    <title>Shape</title>
    <desc>Created with Sketch.</desc>
    <defs>
        <radialGradient cx="36.808231%" cy="16.9663493%" fx="36.808231%" fy="16.9663493%" r="106.342084%" gradientTransform="translate(0.368082,0.169663),scale(0.931034,1.000000),rotate(58.281142),translate(-0.368082,-0.169663)" id="radialGradient-1">
            <stop stop-color="#474747" offset="0%"></stop>
            <stop stop-color="#070707" offset="100%"></stop>
        </radialGradient>
        <radialGradient cx="29.7889115%" cy="6.19920466%" fx="29.7889115%" fy="6.19920466%" r="115.834721%" gradientTransform="translate(0.297889,0.061992),scale(0.931034,1.000000),rotate(56.118595),translate(-0.297889,-0.061992)" id="radialGradient-2">
            <stop stop-color="#00D1B7" offset="0%"></stop>
            <stop stop-color="#0297B5" offset="100%"></stop>
        </radialGradient>
        <path d="M236.292259,122.650913 C236.753313,117.751119 233.350732,113.312159 228.443025,112.411339 L222.272613,103.979734 C222.650971,103.291835 222.94097,102.560011 223.135814,101.801014 L229.111382,99.4454803 C231.871283,102.542516 236.341348,103.533418 240.18006,101.898913 C244.018773,100.264408 246.351605,96.3771072 245.956632,92.2731629 C245.561659,88.1692185 242.527996,84.7844415 238.44573,83.8910659 L233.604858,74.3717762 C237.000643,70.9609424 237.29404,65.5928716 234.289075,61.8425551 C231.28411,58.0918663 225.919126,57.1292541 221.766625,59.5957153 L216.368411,55.1776005 C216.776978,54.1249062 216.990701,53.0089312 216.999764,51.8817889 C217.008449,47.9900213 214.610292,44.4857553 210.946409,43.0366256 C207.282527,41.5871236 203.092265,42.4853383 200.369747,45.3035663 L190.816768,42.9495214 C189.67263,38.8645613 185.914725,36.0258602 181.615714,36.0001757 C177.316703,35.9744911 173.524058,38.767779 172.329699,42.838594 L159.56294,45.3556798 C156.232859,41.8156789 150.736468,41.306827 146.79618,44.1741905 C142.855893,47.0411819 141.729503,52.3686786 144.179391,56.5489321 L137.923641,64.76166 C133.440738,65.5604867 130.137466,69.3443048 130.004172,73.8331451 C129.870879,78.3219855 132.94419,82.2896901 137.371963,83.3457345 L142.544748,95.934514 C139.706683,98.6808997 138.868782,102.862642 140.434324,106.467041 C141.999866,110.071067 145.648267,112.359225 149.622917,112.229686 C153.597567,112.100146 157.085109,109.580082 158.405964,105.88188 L175.705093,105.88188 C177.149425,110.261654 181.656495,112.91349 186.252302,112.087862 L196.949419,128.12805 C194.205,131.127558 193.68353,135.508822 195.648576,139.053289 C197.613623,142.597385 201.636606,144.530427 205.679224,143.872679 C209.721842,143.214931 212.90126,140.110451 213.607,136.131579 L221.592172,129.839609 C223.111647,130.783981 224.870144,131.287994 226.666402,131.29395 C231.658692,131.2973 235.831584,127.551078 236.292259,122.650913 Z M236.333418,89.9991496 C237.945028,89.9957995 239.311196,91.166866 239.531716,92.7403239 C239.752614,94.3137817 238.759895,95.8064635 237.208324,96.2345394 C235.656753,96.6626152 234.022487,95.8946844 233.38245,94.4366209 C233.3715,94.4075862 233.377541,94.3774347 233.365836,94.3484 L233.345445,94.3175041 C233.195537,93.9545703 233.115862,93.5674408 233.110954,93.1754723 C233.113219,91.4222226 234.55453,90.0010108 236.333418,89.9991496 Z M223.512284,67.1183105 C223.821541,65.6438684 225.139753,64.586335 226.667157,64.5874517 C228.446801,64.5874517 229.889244,66.009408 229.889244,67.7637744 C229.889244,69.5181408 228.446801,70.940097 226.667157,70.940097 C226.268409,70.9352579 225.874569,70.8567153 225.505273,70.7085638 L225.477708,70.6906963 C225.449387,70.6795291 225.419557,70.685485 225.390481,70.67469 C223.987308,70.078734 223.202649,68.5931248 223.512284,67.1183105 Z M220.306811,74.883606 L220.306811,74.883606 L214.352389,89.5602788 L203.914307,81.3285668 C205.330319,80.1377715 206.364951,78.5672916 206.893596,76.8077138 L219.660355,74.2906279 C219.863128,74.5024324 220.084781,74.6907858 220.306811,74.883606 Z M216.876288,100.386875 C216.442422,101.914547 214.930877,102.892049 213.336259,102.675405 C211.742019,102.458762 210.554457,101.115348 210.555968,99.5284898 C210.557856,97.7748679 211.999166,96.3536561 213.778054,96.3521672 C214.176803,96.3570063 214.570643,96.4355489 214.939939,96.5837003 L214.967504,96.6015679 C214.99658,96.6131073 215.027165,96.6082682 215.056241,96.6186909 C216.533046,97.2500097 217.310154,98.8588303 216.876288,100.386875 Z M207.333503,48.7054662 C209.113146,48.7054662 210.55559,50.1274225 210.55559,51.8817889 C210.55559,53.6361553 209.112769,55.0581115 207.333503,55.0581115 C205.554237,55.0581115 204.111416,53.6361553 204.111416,51.8817889 C204.113304,50.128167 205.554615,48.7073274 207.333503,48.7054662 Z M190.37686,49.3888986 L197.736721,51.2028234 C197.719729,51.4313787 197.667242,51.6495112 197.667242,51.8821611 C197.672906,57.1426547 201.997594,61.4059177 207.333881,61.4115013 C209.061792,61.4025676 210.755342,60.9324286 212.233658,60.0505924 L217.632249,64.4687072 C217.223682,65.5214015 217.009581,66.6373766 217.000519,67.7645188 C217.000519,67.9565946 217.046964,68.1363865 217.057915,68.3258565 L206.56357,70.3947656 C205.247624,67.375156 202.446564,65.236638 199.1516,64.7359754 L187.35377,53.1060858 C188.663675,52.1382622 189.703971,50.8596183 190.37686,49.3888986 Z M200.889329,74.1171641 C200.889329,75.8715306 199.446886,77.2934868 197.667242,77.2934868 C195.888354,77.2916256 194.446666,75.8707861 194.445155,74.1171641 C194.445155,72.3627977 195.887599,70.9408415 197.667242,70.9408415 C199.446886,70.9408415 200.889329,72.3627977 200.889329,74.1171641 Z M181.556053,42.3524487 C183.335696,42.3524487 184.778139,43.7744049 184.778139,45.5287714 C184.778139,47.2831378 183.335696,48.705094 181.556053,48.705094 C179.776409,48.705094 178.333966,47.2831378 178.333966,45.5287714 C178.335476,43.7755217 179.777165,42.3543099 181.556053,42.3524487 Z M182.194579,57.004926 L191.86877,66.5405942 C190.364777,67.6606639 189.226304,69.1901975 188.594196,70.9404693 L180.962083,70.9404693 C180.201213,68.8373141 178.714212,67.0650802 176.761249,65.933471 L182.194579,57.004926 Z M162.16538,51.3208234 L172.659724,49.2519143 C173.483277,51.1242808 174.894002,52.6876882 176.684218,53.7124645 L170.835146,63.3225807 L160.723692,56.9267556 C161.697908,55.418812 162.217489,53.6692847 162.222776,51.8817889 C162.222776,51.6897131 162.176331,51.5099213 162.16538,51.3208234 Z M175.111501,74.1171641 C175.111501,75.8715306 173.669057,77.2934868 171.889414,77.2934868 C170.110526,77.2916256 168.668838,75.8707861 168.667327,74.1171641 C168.667327,72.3627977 170.109771,70.9408415 171.889414,70.9408415 C173.669057,70.9408415 175.111501,72.3627977 175.111501,74.1171641 Z M152.556138,48.7054662 C154.335781,48.7054662 155.778224,50.1274225 155.778224,51.8817889 C155.778224,53.6361553 154.335781,55.0581115 152.556138,55.0581115 C150.776494,55.0581115 149.334051,53.6361553 149.334051,51.8817889 C149.335561,50.128167 150.77725,48.7073274 152.556138,48.7054662 Z M149.04896,60.7384917 C151.012119,61.5365739 153.197685,61.6277727 155.222393,60.9964539 L165.171101,67.2891686 C164.112302,68.3117114 163.306497,69.5613206 162.816746,70.9404693 L148.740081,70.9404693 C148.036607,68.9742984 146.699136,67.2891686 144.931954,66.1437865 L149.04896,60.7384917 Z M139.667035,77.2934868 C137.887391,77.2934868 136.444948,75.8715306 136.444948,74.1171641 C136.446836,72.3635422 137.888147,70.9423305 139.667035,70.9408415 C141.446678,70.9408415 142.889122,72.3627977 142.889122,74.1171641 C142.889122,75.8715306 141.446678,77.2934868 139.667035,77.2934868 Z M149.333673,105.881507 C147.55403,105.881507 146.111586,104.459179 146.111586,102.705185 C146.111586,100.950818 147.55403,99.528862 149.333673,99.528862 C151.113316,99.528862 152.55576,100.951191 152.55576,102.705185 C152.55425,104.458807 151.112561,105.879646 149.333673,105.881507 Z M151.166181,93.358242 C150.562771,93.2398698 149.948788,93.1788224 149.333673,93.1754723 C149.014598,93.1754723 148.713271,93.2383808 148.402126,93.2685322 L144.011358,82.5826428 C146.216182,81.4811851 147.908221,79.5879732 148.739703,77.2934868 L162.816368,77.2934868 C163.396744,78.8933737 164.401546,80.3104908 165.726177,81.3970589 L151.166181,93.358242 Z M175.705471,99.5284898 L158.406342,99.5284898 C158.062345,98.5770447 157.565797,97.6859025 156.935955,96.8893093 L172.760922,83.8892047 L178.149695,95.8038579 C177.048605,96.8379402 176.211081,98.1143506 175.705471,99.5284898 Z M180.962083,77.2934868 L188.594574,77.2934868 C189.355444,79.3966419 190.842445,81.1688759 192.795408,82.300485 L186.095974,93.3072452 C185.66022,93.2335417 185.220313,93.1896174 184.778517,93.1758445 C184.528921,93.1758445 184.29443,93.2301915 184.049366,93.2484313 L178.517858,81.018491 C179.618949,79.9840364 180.456472,78.707626 180.962083,77.2934868 Z M184.778139,105.881507 C182.998496,105.881507 181.556053,104.459179 181.556053,102.705185 C181.556053,100.950818 182.998874,99.528862 184.778139,99.528862 C186.557783,99.528862 188.000226,100.951191 188.000226,102.705185 C187.998716,104.458807 186.557027,105.879646 184.778139,105.881507 Z M198.532331,85.2207067 L207.530989,92.3174594 C206.115356,93.5086269 205.080346,95.0791069 204.551701,96.8383124 L193.674468,98.9827862 C193.226253,97.9676881 192.602452,97.0374607 191.830632,96.2334226 L198.532331,85.2207067 Z M204.111416,137.645851 C202.331773,137.645851 200.889329,136.223894 200.889329,134.469528 C200.889329,132.715161 202.331773,131.293205 204.111416,131.293205 C205.891059,131.293205 207.333503,132.715161 207.333503,134.469528 C207.331993,136.22315 205.890304,137.644362 204.111416,137.645851 Z M217.000141,121.763865 C217.011847,122.825121 217.205557,123.876698 217.572965,124.874301 L212.133593,129.160643 C210.099823,126.028989 206.347581,124.419424 202.636876,125.087222 L191.939759,109.047035 C192.895472,107.996574 193.600835,106.749198 194.004493,105.395734 L204.881726,103.251261 C206.955522,108.079584 212.599555,110.345035 217.504619,108.317817 L221.479647,113.749541 C218.695202,115.490879 217.005805,118.513094 217.000141,121.763865 Z M220.1384,92.4090304 L226.286533,77.2555183 C226.415296,77.2607297 226.536507,77.2934868 226.66678,77.2934868 C227.054956,77.2785972 227.441999,77.2398843 227.825644,77.1780924 L231.727038,84.850328 C228.620876,86.5023285 226.679241,89.6965186 226.66678,93.1758445 C226.66678,93.3046395 226.700386,93.4241285 226.705295,93.5518068 L222.373055,95.2592709 C221.819112,94.1779142 221.060507,93.2104628 220.1384,92.4090304 Z M226.66678,124.940188 C224.887137,124.940188 223.444693,123.518231 223.444693,121.763865 C223.446581,120.010243 224.887892,118.589031 226.66678,118.587542 C228.446423,118.587542 229.888867,120.009499 229.888867,121.763865 C229.888867,123.518231 228.446423,124.940188 226.66678,124.940188 Z" id="path-3"></path>
        <filter x="-2.2%" y="-2.3%" width="104.3%" height="104.6%" filterUnits="objectBoundingBox" id="filter-4">
            <feGaussianBlur stdDeviation="1.5" in="SourceAlpha" result="shadowBlurInner1"></feGaussianBlur>
            <feOffset dx="0" dy="1" in="shadowBlurInner1" result="shadowOffsetInner1"></feOffset>
            <feComposite in="shadowOffsetInner1" in2="SourceAlpha" operator="arithmetic" k2="-1" k3="1" result="shadowInnerInner1"></feComposite>
            <feColorMatrix values="0 0 0 0 0   0 0 0 0 0   0 0 0 0 0  0 0 0 0.5 0" type="matrix" in="shadowInnerInner1"></feColorMatrix>
        </filter>
    </defs>
    <g id="Game-Setup" stroke="none" stroke-width="1" fill="none" fill-rule="evenodd">
        <g id="iPhone-XS-Copy-4" transform="translate(-129.000000, -35.000000)" fill-rule="nonzero">
            <g id="Shape">
                <use fill="url(#radialGradient-1)" xlink:href="#path-3"></use>
                <use fill="black" fill-opacity="1" filter="url(#filter-4)" xlink:href="#path-3"></use>
                <use stroke="url(#radialGradient-2)" stroke-width="1" xlink:href="#path-3"></use>
            </g>
        </g>
    </g>
</svg>