<?xml version="1.0" encoding="UTF-8"?>
<svg width="147px" height="142px" viewBox="0 0 147 142" version="1.1" xmlns="http://www.w3.org/2000/svg" xmlns:xlink="http://www.w3.org/1999/xlink">
    <!-- Generator: Sketch 53.2 (72643) - https://sketchapp.com -->
    <title>Shape</title>
    <desc>Created with Sketch.</desc>
    <defs>
        <radialGradient cx="36.808231%" cy="16.9663493%" fx="36.808231%" fy="16.9663493%" r="106.13987%" gradientTransform="translate(0.368082,0.169663),scale(0.937500,1.000000),rotate(58.458197),translate(-0.368082,-0.169663)" id="radialGradient-1">
            <stop stop-color="#474747" offset="0%"></stop>
            <stop stop-color="#070707" offset="100%"></stop>
        </radialGradient>
        <radialGradient cx="29.7889115%" cy="6.19920466%" fx="29.7889115%" fy="6.19920466%" r="115.587043%" gradientTransform="translate(0.297889,0.061992),scale(0.937500,1.000000),rotate(56.301864),translate(-0.297889,-0.061992)" id="radialGradient-2">
            <stop stop-color="#00D1B7" offset="0%"></stop>
            <stop stop-color="#0297B5" offset="100%"></stop>
        </radialGradient>
        <path d="M227.966008,347.209094 C228.347569,343.125933 225.53164,339.426799 221.470089,338.676116 L216.363542,331.649778 C216.676666,331.076529 216.916665,330.466676 217.077915,329.834178 L222.023213,327.871234 C224.307268,330.452097 228.006633,331.277849 231.183498,329.915761 C234.360364,328.553673 236.290983,325.314256 235.964109,321.894302 C235.637235,318.474349 233.126618,315.653701 229.74819,314.909222 L225.741952,306.97648 C228.552256,304.134119 228.795068,299.660726 226.3082,296.535463 C223.821332,293.409889 219.381345,292.607712 215.944793,294.663096 L211.477306,290.981334 C211.81543,290.104089 211.992305,289.174109 211.999805,288.234824 C212.006992,284.991684 210.02231,282.071463 206.990132,280.863855 C203.957953,279.655936 200.490151,280.404449 198.237032,282.752972 L190.331118,280.791268 C189.384246,277.387134 186.274255,275.02155 182.716453,275.000146 C179.158651,274.978743 176.01991,277.306482 175.031475,280.698828 L164.465881,282.7964 C161.709952,279.846399 157.161215,279.422356 153.900287,281.811825 C150.639359,284.200985 149.707175,288.640566 151.734669,292.12411 L146.557496,298.96805 C142.847507,299.633739 140.113765,302.786921 140.003453,306.527621 C139.893141,310.268321 142.436571,313.574742 146.100935,314.454779 L150.38186,324.945428 C148.033117,327.234083 147.339682,330.718868 148.635303,333.722534 C149.930924,336.725889 152.95029,338.632688 156.239655,338.524738 C159.529021,338.416789 162.415262,336.316735 163.508384,333.2349 L177.824905,333.2349 C179.020214,336.884711 182.750203,339.094575 186.553629,338.406552 L195.406416,351.773375 C193.135172,354.272965 192.703611,357.924018 194.329856,360.877741 C195.956102,363.831154 199.285467,365.442022 202.631082,364.893899 C205.976697,364.345776 208.607939,361.758709 209.192,358.442982 L215.800418,353.199674 C217.057915,353.986651 218.513223,354.406662 219.999781,354.411625 C224.131331,354.414417 227.584759,351.292565 227.966008,347.209094 Z M228.497481,320.000006 C229.746514,319.997369 230.805324,320.918977 230.976232,322.15726 C231.147432,323.395542 230.378054,324.570256 229.175552,324.907143 C227.973051,325.244031 226.706459,324.639684 226.210416,323.492214 C226.201929,323.469365 226.206611,323.445636 226.197539,323.422786 L226.181736,323.398472 C226.065554,323.112849 226.003804,322.808186 226,322.499714 C226.001756,321.119938 227.118803,320.00147 228.497481,320.000006 Z M218.052081,300.991973 C218.292035,299.831478 219.314843,298.999122 220.499965,299.000001 C221.8808,299.000001 223,300.119185 223,301.5 C223,302.880816 221.8808,304 220.499965,304 C220.190573,303.996191 219.884991,303.934372 219.598452,303.817766 L219.577064,303.803703 C219.55509,303.794914 219.531945,303.799602 219.509385,303.791105 C218.420655,303.322044 217.811834,302.15276 218.052081,300.991973 Z M215,307.504839 L215,307.504839 L209.914632,320 L201,312.991833 C202.209343,311.978036 203.09297,310.640989 203.544458,309.142951 L214.447895,307 C214.621073,307.180322 214.810375,307.340679 215,307.504839 Z M211.907063,328.175327 C211.570212,329.37761 210.396656,330.146907 209.158604,329.976408 C207.920845,329.805909 206.998828,328.748638 207.000001,327.499776 C207.001467,326.11967 208.120493,325.001172 209.501612,325 C209.811198,325.003808 210.116973,325.065622 210.403693,325.182217 L210.425094,325.196279 C210.447668,325.205361 210.471415,325.201552 210.493989,325.209755 C211.640572,325.706605 212.243914,326.972752 211.907063,328.175327 Z M204.5,286 C205.880816,286 207,287.119184 207,288.5 C207,289.880816 205.880523,291 204.5,291 C203.119477,291 202,289.880816 202,288.5 C202.001465,287.11977 203.11977,286.001465 204.5,286 Z M189.496072,286 L195.572881,287.554358 C195.558851,287.750208 195.515514,287.937127 195.515514,288.136485 C195.520191,292.64422 199.090951,296.297425 203.496957,296.30221 C204.92364,296.294554 206.321951,295.891691 207.542551,295.136042 L212,298.92194 C211.662659,299.823997 211.485883,300.78028 211.4784,301.746132 C211.4784,301.910723 211.516749,302.064787 211.52579,302.227145 L202.860936,304 C201.7744,301.412486 199.461652,299.579983 196.741102,299.150963 L187,289.185271 C188.081548,288.355939 188.940488,287.260265 189.496072,286 Z M199,306.5 C199,307.880816 197.880816,309 196.5,309 C195.11977,308.998535 194.001172,307.88023 194,306.5 C194,305.119184 195.119184,304 196.5,304 C197.880816,304 199,305.119184 199,306.5 Z M182.5,280 C183.880816,280 185,281.119184 185,282.5 C185,283.880816 183.880816,285 182.5,285 C181.119184,285 180,283.880816 180,282.5 C180.001172,281.120063 181.11977,280.001465 182.5,280 Z M182.675373,292 L191,300.211235 C189.705816,301.175735 188.726162,302.492828 188.182234,304 L181.614812,304 C180.960084,302.188957 179.680522,300.662874 178,299.688437 L182.675373,292 Z M167.174269,287.764444 L175.722012,286 C176.392803,287.596825 177.541852,288.930159 179,289.804127 L174.235876,298 L166,292.545397 C166.793508,291.259365 167.216712,289.767302 167.221018,288.242857 C167.221018,288.079048 167.183188,287.925714 167.174269,287.764444 Z M177,306.5 C177,307.880816 175.880816,309 174.5,309 C173.11977,308.998535 172.001172,307.88023 172,306.5 C172,305.119184 173.119184,304 174.5,304 C175.880816,304 177,305.119184 177,306.5 Z M158.5,286 C159.880816,286 161,287.119184 161,288.5 C161,289.880816 159.880816,291 158.5,291 C157.119184,291 156,289.880816 156,288.5 C156.001172,287.11977 157.11977,286.001465 158.5,286 Z M155.458106,295 C157.107073,295.704054 158.942853,295.784508 160.643519,295.22757 L169,300.778889 C168.110655,301.680957 167.433814,302.78334 167.022444,304 L155.19866,304 C154.607773,302.26548 153.484356,300.778889 152,299.768453 L155.458106,295 Z M148.5,309 C147.119184,309 146,307.880816 146,306.5 C146.001465,305.11977 147.11977,304.001172 148.5,304 C149.880816,304 151,305.119184 151,306.5 C151,307.880816 149.880816,309 148.5,309 Z M156.5,333 C155.119184,333 154,331.880523 154,330.5 C154,329.119184 155.119184,328 156.5,328 C157.880816,328 159,329.119477 159,330.5 C158.998828,331.88023 157.88023,332.998535 156.5,333 Z M157.930826,323 C157.430643,322.90421 156.921696,322.854809 156.411811,322.852098 C156.147321,322.852098 155.897543,322.903005 155.639626,322.927405 L152,314.280117 C153.827638,313.38879 155.230215,311.856756 155.919453,310 L167.587981,310 C168.06907,311.294668 168.901977,312.441435 170,313.320713 L157.930826,323 Z M177.926059,328 L163.247633,328 C162.955749,327.209121 162.534425,326.468368 162,325.806207 L175.42759,315 L180,324.903937 C179.065717,325.763507 178.355073,326.824511 177.926059,328 Z M182.054323,310 L188.469281,310 C189.108778,311.707345 190.358573,313.146048 192,314.064691 L186.369258,323 C186.003015,322.940167 185.633281,322.90451 185.261961,322.893329 C185.052181,322.893329 184.855095,322.937448 184.649123,322.952255 L180,313.023966 C180.925445,312.184193 181.629367,311.148001 182.054323,310 Z M185.5,333 C184.119184,333 183,331.880523 183,330.5 C183,329.119184 184.119477,328 185.5,328 C186.880816,328 188,329.119477 188,330.5 C187.998828,331.88023 186.88023,332.998535 185.5,333 Z M196.549051,316 L204,321.672419 C202.827846,322.624517 201.970851,323.879798 201.53313,325.285927 L192.526708,327 C192.155583,326.188634 191.639073,325.445106 191,324.80244 L196.549051,316 Z M201.5,360 C200.119184,360 199,358.880816 199,357.5 C199,356.119184 200.119184,355 201.5,355 C202.880816,355 204,356.119184 204,357.5 C203.998828,358.88023 202.88023,359.998828 201.5,360 Z M211.360578,346.719298 C211.370088,347.620424 211.52747,348.513333 211.825975,349.36041 L207.406698,353 C205.75434,350.340871 202.705791,348.974168 199.690988,349.541205 L191,335.921269 C191.77648,335.029309 192.349559,333.970145 192.677515,332.820901 L201.514841,331 C203.199719,335.099793 207.785274,337.023418 211.770446,335.30208 L215,339.914229 C212.737748,341.392822 211.36518,343.959025 211.360578,346.719298 Z M214,321.635463 L219.305311,309.064232 C219.416422,309.068555 219.521017,309.09573 219.633431,309.09573 C219.968394,309.083378 220.302379,309.051262 220.633431,309 L224,315.364825 C221.319648,316.735311 219.644184,319.385185 219.633431,322.271606 C219.633431,322.378453 219.662431,322.477581 219.666667,322.583501 L215.928315,324 C215.45031,323.102915 214.795699,322.300325 214,321.635463 Z M220.5,349 C219.119184,349 218,347.880816 218,346.5 C218.001465,345.11977 219.11977,344.001172 220.5,344 C221.880816,344 223,345.119184 223,346.5 C223,347.880816 221.880816,349 220.5,349 Z" id="path-3"></path>
        <filter x="-41.1%" y="-43.9%" width="182.3%" height="187.8%" filterUnits="objectBoundingBox" id="filter-4">
            <feMorphology radius="2" operator="dilate" in="SourceAlpha" result="shadowSpreadOuter1"></feMorphology>
            <feOffset dx="0" dy="0" in="shadowSpreadOuter1" result="shadowOffsetOuter1"></feOffset>
            <feGaussianBlur stdDeviation="11.5" in="shadowOffsetOuter1" result="shadowBlurOuter1"></feGaussianBlur>
            <feComposite in="shadowBlurOuter1" in2="SourceAlpha" operator="out" result="shadowBlurOuter1"></feComposite>
            <feColorMatrix values="0 0 0 0 0   0 0 0 0 0.714735448   0 0 0 0 0.720776498  0 0 0 0.17378715 0" type="matrix" in="shadowBlurOuter1"></feColorMatrix>
        </filter>
        <filter x="-29.7%" y="-31.7%" width="159.4%" height="163.3%" filterUnits="objectBoundingBox" id="filter-5">
            <feGaussianBlur stdDeviation="1.5" in="SourceAlpha" result="shadowBlurInner1"></feGaussianBlur>
            <feOffset dx="0" dy="1" in="shadowBlurInner1" result="shadowOffsetInner1"></feOffset>
            <feComposite in="shadowOffsetInner1" in2="SourceAlpha" operator="arithmetic" k2="-1" k3="1" result="shadowInnerInner1"></feComposite>
            <feColorMatrix values="0 0 0 0 0   0 0 0 0 0   0 0 0 0 0  0 0 0 0.5 0" type="matrix" in="shadowInnerInner1"></feColorMatrix>
        </filter>
    </defs>
    <g id="Game-Setup" stroke="none" stroke-width="1" fill="none" fill-rule="evenodd">
        <g id="Splash" transform="translate(-114.000000, -249.000000)" fill-rule="nonzero">
            <g id="Shape">
                <use fill="black" fill-opacity="1" filter="url(#filter-4)" xlink:href="#path-3"></use>
                <use fill="url(#radialGradient-1)" xlink:href="#path-3"></use>
                <use fill="black" fill-opacity="1" filter="url(#filter-5)" xlink:href="#path-3"></use>
                <use stroke="url(#radialGradient-2)" stroke-width="1" xlink:href="#path-3"></use>
            </g>
        </g>
    </g>
</svg>